<svg xmlns="http://www.w3.org/2000/svg" width="213.923" height="51.44" viewBox="0 0 213.923 51.44">
  <path id="elle-decor-logo" d="M76.923,255.83h0c-5.525-5.133-11.265-6.2-18.145-6.2H46.408v49.087h12.37c6.06,0,12.477-.784,18.394-6.524a25.438,25.438,0,0,0-.25-36.361Zm4.563,18.394a21.816,21.816,0,0,1-6.417,15.507c-4.1,4.064-8.948,5.811-16.22,5.811h-9.2V252.8h9.2c7.094,0,11.657,1.533,15.756,5.24A21.82,21.82,0,0,1,81.486,274.224Zm137.494.891a12.072,12.072,0,0,0,3.957-1.248c4.385-2.1,6.88-6.345,6.88-11.693a12.479,12.479,0,0,0-5.312-10.409c-2.887-2.175-6.274-2.139-10.231-2.139H203.9v49.087h3.244V275.186h7.914c.5.713,16.4,23.92,16.4,23.92l2.567-2.068L218.98,275.115Zm7.629-13.083c0,4.064-1.782,7.272-5.026,9.019-1.889,1-4.349,1-6.559.963H207.18V252.8h7.415c2.638,0,5.882-.036,8.021,1.5a9.248,9.248,0,0,1,3.993,7.736ZM86.869,249.52v49.3H109.9V295.4H90.326V274.83H109.4v-3.422H90.326v-18.5H109.9V249.52Zm63.2,43.205a23.716,23.716,0,0,1-12.548,4.171c-5.418,0-11.55-2.638-16.006-6.88a21.328,21.328,0,0,1-6.666-15.293,22.957,22.957,0,0,1,22.672-22.636,21.644,21.644,0,0,1,13.867,5.062l.535.463,2.46-2.1-.749-.642a24.742,24.742,0,0,0-16.006-5.989,26.049,26.049,0,0,0-18.323,7.522,25.281,25.281,0,0,0-7.736,18.18c0,13.831,11.906,25.524,25.987,25.524a25.6,25.6,0,0,0,14.509-4.563l.713-.5-2.068-2.745-.642.428Zm25.88-44.025a26.19,26.19,0,0,0-25.845,25.845,25.234,25.234,0,0,0,7.664,18.073,25.732,25.732,0,0,0,36.361,0,25.234,25.234,0,0,0,7.664-18.073A26.19,26.19,0,0,0,175.953,248.7Zm-15.9,41.6a22.07,22.07,0,0,1-6.631-15.756,22.565,22.565,0,1,1,45.13,0c0,12.085-10.338,22.316-22.6,22.316a22.326,22.326,0,0,1-15.9-6.559ZM37,289.588v.392h.071c4.135,0,5.6,2.068,5.6,4.028v.856H31.614v-.321c0-1.426,1.5-2.281,4.028-2.281h.071v-.392H26.944v.392h.071c2.068,0,4.171.713,4.171,2.281v.321H20.528v-1.105c0-1.711,1.39-3.743,5.276-3.743h.071v-.392H20.136v9.09h.428v-1.5H42.7v1.5h.428v-9.126Zm-.036-13.724v.428h.071c3.6.071,5.632,1.5,5.632,3.886v1.034H20.528V279.5H20.1v5.811h.428V283.6H42.665v1.711h.428v-9.447Zm0-13.4v.428h.071c3.6.071,5.632,1.5,5.632,3.886v1.034H20.528V266.1H20.1v5.811h.428V270.2H42.665v1.711h.428V262.46Zm6.06-12.833H37v.392h.071c4.135,0,5.6,2.068,5.6,4.028v.856H31.614v-.321c0-1.426,1.5-2.281,4.028-2.281h.071v-.392H26.944v.392h.071c2.068,0,4.171.713,4.171,2.281v.321H20.528V253.8c0-1.711,1.39-3.743,5.276-3.743h.071v-.392H20.136v9.09h.428v-1.5H42.7v1.5h.428v-9.126Zm165.085,47.34a1.176,1.176,0,1,1,1.176,1.176,1.187,1.187,0,0,1-1.176-1.176Zm2.21,0a1.028,1.028,0,0,0-1-1.034h0a1.035,1.035,0,0,0-1.034,1.034h0A1.035,1.035,0,0,0,209.319,298h0a1.028,1.028,0,0,0,1-1.034Zm-.463.642h-.178l-.356-.606H209v.606h-.143v-1.283h.57c.321,0,.463.143.463.356a.347.347,0,0,1-.392.356l.356.57Zm-.606-.713c.178,0,.463.036.463-.214,0-.178-.178-.178-.356-.178H209v.392Z" transform="translate(-20.1 -248.7)"/>
</svg>
