<svg xmlns="http://www.w3.org/2000/svg" width="312.393" height="51.439" viewBox="0 0 312.393 51.439">
  <path id="house-beautiful-logo" d="M-113.6,243.888h-10.882V221H-131.2v47.678h6.716V247.151H-113.6v21.528h6.612V221H-113.6Zm22.128-10.061c-6.873,0-11.663,5.484-11.663,17.721,0,12.554,5.154,17.9,11.663,17.9,6.248,0,11.559-5.076,11.559-17.9C-79.863,239.174-84.81,233.826-91.474,233.826Zm0,33.447c-3.228,0-4.686-3.58-4.686-15.59,0-12.463,1.614-15.681,4.634-15.681,3.176,0,4.686,3.58,4.686,15.59,0,12.418-1.614,15.681-4.634,15.681ZM19.894,243.888a11.092,11.092,0,0,0,7.289-10.922c0-8.248-4.79-11.965-11.559-11.965H4.326v47.678H15.26c7.81,0,12.964-3.9,12.964-13.279,0-6.617-3.593-10.107-8.33-11.512ZM11.043,223.81h2.6c3.957,0,6.508,1.541,6.508,9.291,0,7.523-2.916,9.064-6.769,9.064H11.043ZM13.7,265.733H11.043V245.338h2.239c4.79,0,7.81,1.858,7.81,10.2C21.143,263.965,18.228,265.733,13.7,265.733Zm103.558-28.144v-3.082h-6.508v-11.33l-6.352,1.088v10.243h-3.124v3.082H104.4v31.453h6.352V237.588Zm6.716-9.155a3.123,3.123,0,0,0,3.228-2.81,3.088,3.088,0,0,0-3.228-2.81,2.837,2.837,0,1,0,0,5.62Zm3.124,6.073-6.3,1.042v19.126h-.052V269h6.3Zm21.243-11.33h2.812c0-2.674-2.5-5.076-7.029-5.076-6.3,0-9.684,4.441-9.684,11.33v5.076h-3.7v3.082h3.645v31.453h6.3V237.588h4.894v-3.082h-5.1c-.1-1.994-.573-4.713-.573-7.3,0-3.49,1.2-6.889,4.79-6.889-.052,0,3.072,0,3.645,2.855Zm26.449-1.858V269h6.4v-48.72ZM-44.667,267.364a7.078,7.078,0,0,1-5.363-3.082l-1.978,1.541c1.718,2.447,4.634,3.58,7.914,3.58,6.248,0,10.465-3.082,10.465-7.523,0-6.843-8.747-12.463-12.235-17.721a7.665,7.665,0,0,1-1.406-4.034c0-2.357,1.718-4.034,4.79-4.034a7.139,7.139,0,0,1,5.675,2.9l1.978-1.541c-1.718-2.447-4.634-3.58-7.914-3.58h-.312c-6.769,0-9.944,3.626-9.944,7.931,0,8.747,13.173,14.095,13.173,21.21,0,3.308-2.187,4.441-4.686,4.441Zm34.207-17.947c-.521-10.877-4.894-15.59-10.778-15.59-6.4,0-10.882,5.484-10.882,17.721v.136c0,12.373,5.05,17.721,11.194,17.721a12.34,12.34,0,0,0,1.406,0c3.332-.091,6.248-1.133,7.914-3.58l-1.978-1.541a5.718,5.718,0,0,1-4.53,1.994,5.192,5.192,0,0,1-1.51,0c-3.072,0-5.467-2.493-5.988-10.922l-.052-1.133,15.2-4.8Zm-10.83-13.506c2.655,0,4.113,2.9,4.373,12.418l-8.643,2.765v-1.722C-25.4,238.721-23.893,235.911-21.29,235.911Zm73.308,13.506c-.521-10.877-4.894-15.59-10.778-15.59-6.4,0-10.882,5.484-10.882,17.721v.136c0,12.373,5.05,17.721,11.194,17.721a12.34,12.34,0,0,0,1.406,0c3.332-.091,6.248-1.133,7.914-3.58l-1.978-1.541a5.718,5.718,0,0,1-4.53,1.994,5.192,5.192,0,0,1-1.51,0c-3.072,0-5.467-2.493-5.988-10.922l-.052-1.133C36.867,254.266,52.018,249.417,52.018,249.417Zm-10.83-13.506c2.655,0,4.113,2.9,4.373,12.418l-8.643,2.765v-1.722C37.075,238.721,38.585,235.911,41.189,235.911Zm-103.35,30.637c.677,2.039,2.5,2.629,4.217,2.629a6.544,6.544,0,0,0,3.9-1.224v-2.266c-1.458.725-2.6.363-2.6-1.133v-30l-6.3,1.042v28.779a4.9,4.9,0,0,1-4.113,2.266c-1.718,0-3.072-.816-3.072-3.49V234.6l-6.3,1.088v27.057c0,3.9,2.239,6.8,7.237,6.8a9.563,9.563,0,0,0,7.029-2.9C-62.265,266.594-62.161,266.548-62.161,266.548Zm154.322,0c.677,2.039,2.5,2.629,4.217,2.629a6.544,6.544,0,0,0,3.9-1.224v-2.266c-1.458.725-2.6.363-2.6-1.133v-30l-6.3,1.042v28.779a4.9,4.9,0,0,1-4.113,2.266c-1.718,0-3.072-.816-3.072-3.49V234.6l-6.3,1.088v27.057c0,3.9,2.239,6.8,7.237,6.8a9.563,9.563,0,0,0,7.029-2.9C92.057,266.594,92.161,266.548,92.161,266.548Zm71.33,0c.677,2.039,2.5,2.629,4.217,2.629a6.544,6.544,0,0,0,3.9-1.224v-2.266c-1.458.725-2.6.363-2.6-1.133v-30l-6.3,1.042v28.779a4.9,4.9,0,0,1-4.113,2.266c-1.718,0-3.072-.816-3.072-3.49V234.6l-6.3,1.088v27.057c0,3.9,2.239,6.8,7.237,6.8a9.563,9.563,0,0,0,7.029-2.9v-.091Zm-90.021-2.039-.052-.227V243.57c0-6.843-3.02-9.789-9.476-9.789H63.16c-3.332,0-6.092,1.088-7.81,3.535l1.978,1.541s2.135-2.719,5.1-2.674c2.6.045,4.686.816,4.686,5.484v5.439c-8.174,1.632-14.11,4.985-14.11,13.052,0,6.934,4.426,9.291,8.174,9.291a10.3,10.3,0,0,0,6.769-2.629c.729,1.858,2.5,2.357,4.165,2.357a6.417,6.417,0,0,0,3.9-1.224v-2.266c-1.354.68-2.551.317-2.551-1.178Zm-6.352-9.88-.052,7.659v2.357a4.609,4.609,0,0,1-3.749,2.085c-1.978,0-3.853-1.5-3.853-7.206,0-6.481,2.447-8.838,7.706-10.288Z" transform="translate(131.2 -218.1)" fill="#274061"/>
</svg>
