<svg xmlns="http://www.w3.org/2000/svg" width="210.838" height="48.668" viewBox="0 0 210.838 48.668">
  <g id="veranda-logo" transform="translate(317.7 -343.3)">
    <g id="Group_3" data-name="Group 3" transform="translate(-317.7 343.3)">
      <path id="Path_5" data-name="Path 5" d="M398.322,257.145h9.593a7.077,7.077,0,0,1-2.179-1.37,5.319,5.319,0,0,1-1.089-1.792L391.4,221.9l-13.564,32.153a5.393,5.393,0,0,1-1.16,1.968,7.882,7.882,0,0,1-1.476,1.16h8.152c-.035,0-1.3-.457-1.581-1.124a2.324,2.324,0,0,1,.281-1.792l3.163-7.59h11.526l2.741,6.782c.316.878.773,1.546.422,2.425-.246.738-1.546,1.265-1.581,1.265ZM386.374,244l4.568-11.42L395.722,244Z" transform="translate(-197.077 -216.067)" fill="#0a0736"/>
      <path id="Path_6" data-name="Path 6" d="M325.483,241c-.457-9.593-7.59-16.2-16.586-16.2H292.522A4.956,4.956,0,0,1,294,226.065a2.439,2.439,0,0,1,.492,1.406v28.885a2.5,2.5,0,0,1-.422,1.335,4.361,4.361,0,0,1-1.968,1.335l13.669.035c11.21,0,20.24-7.942,19.713-18.062Zm-20.065,15.356a16.915,16.915,0,0,1-6.114-.738V227.26h8.539c7.414,0,12.9,6.712,12.826,13.95-.176,12.334-6.887,15.145-15.251,15.145Z" transform="translate(-143.178 -217.948)" fill="#0a0736"/>
      <path id="Path_7" data-name="Path 7" d="M5.173,255a4.232,4.232,0,0,1-2.881.914H-8.6V241.227H-.2a1.825,1.825,0,0,1,1.335.387,1.627,1.627,0,0,1,.773,1.124v-5.763A2.335,2.335,0,0,1,.991,238.1a2.291,2.291,0,0,1-1.3.492H-8.6v-11.6H1.272a3.448,3.448,0,0,1,1.862.6,3.427,3.427,0,0,1,1.37,1.37L4.54,224.5H-15.7a8.7,8.7,0,0,1,1.792,1.406,3.24,3.24,0,0,1,.738,2.214v27.9a2.275,2.275,0,0,1-.668,1.722,11.642,11.642,0,0,1-1.476,1.124H5.876l1.089-6.431A4.33,4.33,0,0,1,5.173,255Z" transform="translate(56.462 -217.753)" fill="#0a0736"/>
      <path id="Path_8" data-name="Path 8" d="M-89.532,206.53a7.351,7.351,0,0,1,1.792-1.23h-9.98a3.185,3.185,0,0,1,1.792,1.23,2.539,2.539,0,0,1-.141,1.9L-108.4,239.983l-12.756-30.5a2.816,2.816,0,0,1,.176-2.53,4.989,4.989,0,0,1,1.792-1.652H-131.7a14.6,14.6,0,0,1,2.46,1.827,6.883,6.883,0,0,1,1.546,2.635l18.378,44.206,18.062-44.909a5.911,5.911,0,0,1,1.722-2.53Z" transform="translate(131.7 -205.3)" fill="#0a0736"/>
      <path id="Path_9" data-name="Path 9" d="M127.783,222.814a2.414,2.414,0,0,1,1.124.914,1.855,1.855,0,0,1,.457,1.16v21.505l-19.186-23.579h-7.942a4.472,4.472,0,0,1,1.862,1.124c.492.492.914.738.914,1.652v29.623a1.443,1.443,0,0,1-.316,1.089,2.214,2.214,0,0,1-.6-.527,5.318,5.318,0,0,1-1.089-1.792L89.761,221.9l-12.51,29.693a40.657,40.657,0,0,1-2.284-3.83,26.559,26.559,0,0,0-6.431-8.082c.387-.07,7.169-1.862,6.958-8.5-.176-6.22-6.149-8.4-10.331-8.4H54.27a4.954,4.954,0,0,1,1.3,1.265,2.727,2.727,0,0,1,.422,1.37l-.035,29.1a2.268,2.268,0,0,1-.457,1.335,5.155,5.155,0,0,1-1.3,1.265h8.082a5.211,5.211,0,0,1-1.195-1.019,2.478,2.478,0,0,1-.738-1.616V240.911h2.881a4.693,4.693,0,0,1,2.53.7,4.233,4.233,0,0,1,1.195,1.3l7.66,12.334a5.6,5.6,0,0,0,.527.738c0,.035-.035.035-.035.07a7.88,7.88,0,0,1-1.476,1.16h9.593a12.742,12.742,0,0,1-2.46-1.124c-.141-.105-.387-.316-.668-.562a4.362,4.362,0,0,1,.351-1.23l3.057-7.59H95.138l2.741,6.782c.316.878.773,1.546.422,2.425a3.751,3.751,0,0,1-1.722,1.3H110.81a2.765,2.765,0,0,1-1.3-.914,1.855,1.855,0,0,1-.457-1.16V228.893l24.141,29.236V224.887c0-.492.387-.773.668-1.16a2.733,2.733,0,0,1,1.124-.879h-7.239v-.035ZM64.847,238.345a38.824,38.824,0,0,1-4.463.07l.035-6.677.035-6.677h2.987c3.127,0,6.677,2.038,7.8,4.744a5.051,5.051,0,0,1,.387,1.862c-.07,2.284-1.933,4.709-6.782,6.677ZM84.666,244l4.638-11.42L94.119,244Z" transform="translate(11.125 -216.067)" fill="#0a0736"/>
    </g>
  </g>
</svg>
