<svg xmlns="http://www.w3.org/2000/svg" width="25.887" height="25.893" viewBox="0 0 25.887 25.893">
  <g id="instagram" transform="translate(-0.449)">
    <path id="Path_14" data-name="Path 14" d="M26.27,7.612a9.461,9.461,0,0,0-.6-3.141A6.633,6.633,0,0,0,21.88.683a9.485,9.485,0,0,0-3.141-.6C17.353.015,16.913,0,13.4,0S9.442.015,8.061.076a9.464,9.464,0,0,0-3.141.6,6.318,6.318,0,0,0-2.3,1.5A6.375,6.375,0,0,0,1.131,4.466a9.487,9.487,0,0,0-.6,3.141C.464,8.993.449,9.433.449,12.949S.464,16.9.524,18.285a9.461,9.461,0,0,0,.6,3.141,6.632,6.632,0,0,0,3.788,3.788,9.487,9.487,0,0,0,3.141.6c1.381.061,1.821.076,5.336.076s3.955-.015,5.336-.076a9.459,9.459,0,0,0,3.141-.6,6.623,6.623,0,0,0,3.789-3.788,9.493,9.493,0,0,0,.6-3.141c.061-1.381.076-1.821.076-5.336s-.005-3.955-.066-5.336ZM23.938,18.184a7.1,7.1,0,0,1-.445,2.4,4.3,4.3,0,0,1-2.458,2.458,7.122,7.122,0,0,1-2.4.445c-1.366.061-1.775.076-5.23.076s-3.869-.015-5.23-.076a7.093,7.093,0,0,1-2.4-.445,3.984,3.984,0,0,1-1.487-.966,4.026,4.026,0,0,1-.966-1.487,7.123,7.123,0,0,1-.445-2.4c-.061-1.366-.076-1.775-.076-5.23s.015-3.869.076-5.23a7.093,7.093,0,0,1,.445-2.4,3.935,3.935,0,0,1,.971-1.487,4.019,4.019,0,0,1,1.487-.966,7.127,7.127,0,0,1,2.4-.445c1.366-.061,1.775-.076,5.23-.076s3.869.015,5.23.076a7.1,7.1,0,0,1,2.4.445,3.981,3.981,0,0,1,1.487.966,4.025,4.025,0,0,1,.966,1.487,7.126,7.126,0,0,1,.445,2.4c.061,1.366.076,1.775.076,5.23s-.015,3.859-.076,5.225Zm0,0" transform="translate(0 0)" fill="#f4fafd"/>
    <path id="Path_15" data-name="Path 15" d="M131.6,124.5a6.651,6.651,0,1,0,6.651,6.651A6.653,6.653,0,0,0,131.6,124.5Zm0,10.966a4.315,4.315,0,1,1,4.315-4.315A4.315,4.315,0,0,1,131.6,135.466Zm0,0" transform="translate(-118.203 -118.203)" fill="#f4fafd"/>
    <path id="Path_16" data-name="Path 16" d="M365.556,90.155A1.553,1.553,0,1,1,364,88.6,1.553,1.553,0,0,1,365.556,90.155Zm0,0" transform="translate(-343.691 -84.12)" fill="#f4fafd"/>
  </g>
</svg>
