<svg id="calendar" xmlns="http://www.w3.org/2000/svg" width="22" height="22" viewBox="0 0 22 22">
  <g id="Group_107" data-name="Group 107">
    <g id="Group_106" data-name="Group 106">
      <path id="Path_33" data-name="Path 33" d="M19.422,1.719H18.391V0H16.672V1.719H5.328V0H3.609V1.719H2.578A2.581,2.581,0,0,0,0,4.3V19.422A2.581,2.581,0,0,0,2.578,22H19.422A2.581,2.581,0,0,0,22,19.422V4.3A2.581,2.581,0,0,0,19.422,1.719Zm.859,17.7a.86.86,0,0,1-.859.859H2.578a.86.86,0,0,1-.859-.859V8.078H20.281Zm0-13.062H1.719V4.3a.86.86,0,0,1,.859-.859H3.609V5.156H5.328V3.438H16.672V5.156h1.719V3.438h1.031a.86.86,0,0,1,.859.859Z" fill="#3f3c3c"/>
    </g>
  </g>
  <g id="Group_109" data-name="Group 109" transform="translate(2.977 10.093)">
    <g id="Group_108" data-name="Group 108" transform="translate(0 0)">
      <rect id="Rectangle_126" data-name="Rectangle 126" width="2" height="2" transform="translate(0.023 -0.093)" fill="#3f3c3c"/>
    </g>
  </g>
  <g id="Group_111" data-name="Group 111" transform="translate(6.698 10.093)">
    <g id="Group_110" data-name="Group 110" transform="translate(0 0)">
      <rect id="Rectangle_127" data-name="Rectangle 127" width="1" height="2" transform="translate(0.303 -0.093)" fill="#3f3c3c"/>
    </g>
  </g>
  <g id="Group_113" data-name="Group 113" transform="translate(10.419 10.093)">
    <g id="Group_112" data-name="Group 112" transform="translate(0 0)">
      <rect id="Rectangle_128" data-name="Rectangle 128" width="2" height="2" transform="translate(-0.419 -0.093)" fill="#3f3c3c"/>
    </g>
  </g>
  <g id="Group_115" data-name="Group 115" transform="translate(13.395 10.093)">
    <g id="Group_114" data-name="Group 114" transform="translate(0 0)">
      <rect id="Rectangle_129" data-name="Rectangle 129" width="3" height="2" transform="translate(-0.395 -0.093)" fill="#3f3c3c"/>
    </g>
  </g>
  <g id="Group_117" data-name="Group 117" transform="translate(17.116 10.093)">
    <g id="Group_116" data-name="Group 116" transform="translate(0 0)">
      <rect id="Rectangle_130" data-name="Rectangle 130" width="2" height="2" transform="translate(-0.115 -0.093)" fill="#3f3c3c"/>
    </g>
  </g>
  <g id="Group_119" data-name="Group 119" transform="translate(2.977 13.07)">
    <g id="Group_118" data-name="Group 118" transform="translate(0 0)">
      <rect id="Rectangle_131" data-name="Rectangle 131" width="2" height="2" transform="translate(0.023 -0.07)" fill="#3f3c3c"/>
    </g>
  </g>
  <g id="Group_121" data-name="Group 121" transform="translate(6.698 13.07)">
    <g id="Group_120" data-name="Group 120" transform="translate(0 0)">
      <rect id="Rectangle_132" data-name="Rectangle 132" width="1" height="2" transform="translate(0.303 -0.07)" fill="#3f3c3c"/>
    </g>
  </g>
  <g id="Group_123" data-name="Group 123" transform="translate(10.419 13.07)">
    <g id="Group_122" data-name="Group 122" transform="translate(0 0)">
      <rect id="Rectangle_133" data-name="Rectangle 133" width="2" height="2" transform="translate(-0.419 -0.07)" fill="#3f3c3c"/>
    </g>
  </g>
  <g id="Group_125" data-name="Group 125" transform="translate(13.395 13.07)">
    <g id="Group_124" data-name="Group 124" transform="translate(0 0)">
      <rect id="Rectangle_134" data-name="Rectangle 134" width="3" height="2" transform="translate(-0.395 -0.07)" fill="#3f3c3c"/>
    </g>
  </g>
  <g id="Group_127" data-name="Group 127" transform="translate(2.977 16.791)">
    <g id="Group_126" data-name="Group 126" transform="translate(0 0)">
      <rect id="Rectangle_135" data-name="Rectangle 135" width="2" height="1" transform="translate(0.023 0.209)" fill="#3f3c3c"/>
    </g>
  </g>
  <g id="Group_129" data-name="Group 129" transform="translate(6.698 16.791)">
    <g id="Group_128" data-name="Group 128" transform="translate(0 0)">
      <rect id="Rectangle_136" data-name="Rectangle 136" width="1" height="1" transform="translate(0.303 0.209)" fill="#3f3c3c"/>
    </g>
  </g>
  <g id="Group_131" data-name="Group 131" transform="translate(10.419 16.791)">
    <g id="Group_130" data-name="Group 130" transform="translate(0 0)">
      <rect id="Rectangle_137" data-name="Rectangle 137" width="2" height="1" transform="translate(-0.419 0.209)" fill="#3f3c3c"/>
    </g>
  </g>
  <g id="Group_133" data-name="Group 133" transform="translate(13.395 16.791)">
    <g id="Group_132" data-name="Group 132" transform="translate(0 0)">
      <rect id="Rectangle_138" data-name="Rectangle 138" width="3" height="1" transform="translate(-0.395 0.209)" fill="#3f3c3c"/>
    </g>
  </g>
  <g id="Group_135" data-name="Group 135" transform="translate(17.116 13.07)">
    <g id="Group_134" data-name="Group 134" transform="translate(0 0)">
      <rect id="Rectangle_139" data-name="Rectangle 139" width="2" height="2" transform="translate(-0.115 -0.07)" fill="#3f3c3c"/>
    </g>
  </g>
</svg>
