<svg xmlns="http://www.w3.org/2000/svg" width="14.501" height="19.037" viewBox="0 0 14.501 19.037">
  <g id="hourglass" transform="translate(-61)">
    <g id="Group_136" data-name="Group 136" transform="translate(61)">
      <path id="Path_34" data-name="Path 34" d="M71.249,7.541a8.165,8.165,0,0,0,3.125-6.425H75.5V0H61V1.115h1.127a8.165,8.165,0,0,0,3.125,6.425c.847.772,1.326,1.244,1.326,1.978S66.1,10.725,65.252,11.5a8.165,8.165,0,0,0-3.125,6.425H61v1.115H75.5V17.922H74.374A8.165,8.165,0,0,0,71.249,11.5c-.847-.772-1.326-1.244-1.326-1.978S70.4,8.313,71.249,7.541ZM67.693,13.7a2.82,2.82,0,0,0-.509.156l-3.416,1.414A7.61,7.61,0,0,1,66,12.321c.869-.792,1.69-1.541,1.69-2.8ZM70.5,12.321a7.61,7.61,0,0,1,2.235,2.948l-3.416-1.414a2.82,2.82,0,0,0-.509-.156V9.519C68.808,10.78,69.629,11.529,70.5,12.321Zm-6.749-8.6a8.264,8.264,0,0,1-.5-2.6H73.257a8.263,8.263,0,0,1-.5,2.6Z" transform="translate(-61)" fill="#3f3c3c"/>
    </g>
  </g>
</svg>
