<svg xmlns="http://www.w3.org/2000/svg" width="169" height="50" viewBox="0 0 169 149">
  <g id="Group_28" data-name="Group 28" transform="translate(-0.452)">
    <rect id="Rectangle_46" data-name="Rectangle 46" width="169" height="149" transform="translate(0.452)" fill="rgba(15,14,14,0.6)"/>
    <g id="phone-call" transform="translate(51.317 41.769)">
      <g id="Group_27" data-name="Group 27">
        <path id="Path_21" data-name="Path 21" d="M52.032,64.171a6.439,6.439,0,0,0-4.67-2.142,6.658,6.658,0,0,0-4.725,2.128l-4.366,4.352c-.359-.193-.718-.373-1.064-.553-.5-.249-.967-.484-1.368-.732A47.452,47.452,0,0,1,24.469,56.862a28,28,0,0,1-3.73-5.886c1.133-1.036,2.183-2.114,3.205-3.15.387-.387.774-.788,1.161-1.174a6.339,6.339,0,0,0,0-9.561l-3.772-3.772c-.428-.428-.87-.87-1.285-1.313-.829-.857-1.7-1.741-2.6-2.57a6.54,6.54,0,0,0-4.628-2.031,6.768,6.768,0,0,0-4.7,2.031l-.028.028L3.4,34.2a10.108,10.108,0,0,0-3,6.425A24.22,24.22,0,0,0,2.17,50.88,59.488,59.488,0,0,0,12.739,68.509a65.017,65.017,0,0,0,21.65,16.952,33.732,33.732,0,0,0,12.158,3.592c.29.014.594.028.87.028a10.411,10.411,0,0,0,7.972-3.426c.014-.028.041-.041.055-.069a31.409,31.409,0,0,1,2.418-2.5c.594-.566,1.2-1.161,1.8-1.782a6.892,6.892,0,0,0,2.086-4.78,6.64,6.64,0,0,0-2.128-4.739Zm4.946,14.548c-.014,0-.014.014,0,0-.539.58-1.091,1.105-1.686,1.686a36.33,36.33,0,0,0-2.667,2.763,6.66,6.66,0,0,1-5.195,2.2c-.207,0-.428,0-.636-.014a29.966,29.966,0,0,1-10.777-3.233A61.373,61.373,0,0,1,15.627,66.147,56.091,56.091,0,0,1,5.679,49.581a19.727,19.727,0,0,1-1.547-8.649,6.342,6.342,0,0,1,1.907-4.1l4.711-4.711a3.141,3.141,0,0,1,2.1-.981,2.955,2.955,0,0,1,2.017.967l.041.041c.843.788,1.644,1.6,2.487,2.473.428.442.87.884,1.313,1.34L22.48,39.73c1.465,1.465,1.465,2.819,0,4.283-.4.4-.788.8-1.188,1.188-1.161,1.188-2.266,2.293-3.468,3.371-.028.028-.055.041-.069.069a2.818,2.818,0,0,0-.718,3.136l.041.124a30.282,30.282,0,0,0,4.463,7.281l.014.014A50.71,50.71,0,0,0,33.823,70.36a18.865,18.865,0,0,0,1.7.926c.5.249.967.484,1.368.732.055.028.111.069.166.1a3,3,0,0,0,1.368.345,2.954,2.954,0,0,0,2.1-.953l4.725-4.725a3.126,3.126,0,0,1,2.086-1.036,2.814,2.814,0,0,1,1.99,1.009l.028.028,7.613,7.613C58.388,75.8,58.388,77.255,56.979,78.719Z" transform="translate(-0.344 -23.62)" fill="#b7b7b7"/>
        <path id="Path_22" data-name="Path 22" d="M246.479,89.625A17.781,17.781,0,0,1,260.958,104.1a1.854,1.854,0,0,0,1.838,1.547,2.468,2.468,0,0,0,.318-.028,1.867,1.867,0,0,0,1.534-2.155A21.5,21.5,0,0,0,247.128,85.95a1.875,1.875,0,0,0-2.155,1.52A1.845,1.845,0,0,0,246.479,89.625Z" transform="translate(-211.15 -74.054)" fill="#b7b7b7"/>
        <path id="Path_23" data-name="Path 23" d="M279.79,28.877A35.4,35.4,0,0,0,250.942.029a1.863,1.863,0,1,0-.608,3.675,31.622,31.622,0,0,1,25.781,25.781,1.854,1.854,0,0,0,1.838,1.547A2.467,2.467,0,0,0,278.27,31,1.83,1.83,0,0,0,279.79,28.877Z" transform="translate(-214.452 0)" fill="#b7b7b7"/>
      </g>
    </g>
  </g>
</svg>
