<svg id="user" xmlns="http://www.w3.org/2000/svg" width="25.036" height="22.623" viewBox="0 0 25.036 22.623">
  <g id="Group_158" data-name="Group 158" transform="translate(0)">
    <path id="Path_39" data-name="Path 39" d="M21.369,14.625a12.727,12.727,0,0,0-4.757-2.7,6.388,6.388,0,0,0,3.142-5.389C19.755,2.934,16.508,0,12.518,0S5.281,2.934,5.281,6.539a6.388,6.388,0,0,0,3.142,5.389,12.727,12.727,0,0,0-4.757,2.7,10.719,10.719,0,0,0-3.666,8H1.956c0-5.263,4.738-9.544,10.562-9.544S23.08,17.36,23.08,22.623h1.956A10.719,10.719,0,0,0,21.369,14.625Zm-8.851-3.313A5.052,5.052,0,0,1,7.237,6.539a5.052,5.052,0,0,1,5.281-4.772A5.052,5.052,0,0,1,17.8,6.539,5.052,5.052,0,0,1,12.518,11.312Z" transform="translate(0 0)"/>
  </g>
</svg>
