<svg xmlns="http://www.w3.org/2000/svg" width="34.589" height="21.629" viewBox="0 0 34.589 21.629">
  <g id="behance" transform="translate(36 -97.977)">
    <g id="Group_6" data-name="Group 6" transform="translate(-36 97.979)">
      <g id="Group_5" data-name="Group 5">
        <path id="Path_12" data-name="Path 12" d="M14.227,105.749a5.187,5.187,0,0,0,1.632-1.2,4.652,4.652,0,0,0,.988-3.106,5.315,5.315,0,0,0-.979-3.218q-1.634-2.192-5.54-2.248H0V117.06H9.629a15.058,15.058,0,0,0,3.02-.283,5.939,5.939,0,0,0,2.414-1.059,5.846,5.846,0,0,0,1.513-1.658,6.091,6.091,0,0,0,.953-3.361,5.531,5.531,0,0,0-.832-3.089,4.8,4.8,0,0,0-2.47-1.861ZM4.26,99.641H8.912a8.2,8.2,0,0,1,2.527.329,1.891,1.891,0,0,1,1.148,1.95,1.985,1.985,0,0,1-.869,1.85,4.359,4.359,0,0,1-2.261.523H4.26Zm7.356,13.391a5.094,5.094,0,0,1-2.166.372H4.26v-5.622H9.521a5.491,5.491,0,0,1,2.14.354,2.261,2.261,0,0,1,1.36,2.263,2.65,2.65,0,0,1-1.4,2.632Z" transform="translate(0 -95.979)" fill="#3f3c3c"/>
        <rect id="Rectangle_25" data-name="Rectangle 25" width="9.158" height="2.624" transform="translate(22.099 0.983)" fill="#3f3c3c"/>
        <path id="Path_13" data-name="Path 13" d="M295.407,177.439a7.521,7.521,0,0,0-1.262-3.223,6.364,6.364,0,0,0-2.728-2.306,9.03,9.03,0,0,0-3.718-.731,7.694,7.694,0,0,0-5.65,2.161,8.386,8.386,0,0,0-2.177,6.216q0,4.322,2.414,6.24a8.674,8.674,0,0,0,5.566,1.917,7.746,7.746,0,0,0,5.946-2.272,5.115,5.115,0,0,0,1.53-2.819H291.11a3.4,3.4,0,0,1-.852,1.072,3.532,3.532,0,0,1-2.291.713,4.236,4.236,0,0,1-2.28-.588,3.724,3.724,0,0,1-1.656-3.288h11.514a19.843,19.843,0,0,0-.138-3.092Zm-11.272.4a4.225,4.225,0,0,1,1.1-2.412,3.323,3.323,0,0,1,2.466-.893,3.669,3.669,0,0,1,2.453.839,3.409,3.409,0,0,1,1.1,2.466Z" transform="translate(-260.967 -166.099)" fill="#3f3c3c"/>
      </g>
    </g>
  </g>
</svg>
