<svg xmlns="http://www.w3.org/2000/svg" width="26.418" height="23.882" viewBox="0 0 26.418 23.882">
  <g id="twitter" transform="translate(0 -48)">
    <g id="Group_7" data-name="Group 7" transform="translate(0 48)">
      <path id="Path_17" data-name="Path 17" d="M26.418,50.828a10.413,10.413,0,0,1-3.121.952,5.923,5.923,0,0,0,2.383-3.331,10.185,10.185,0,0,1-3.434,1.459A5.188,5.188,0,0,0,18.29,48c-3,0-5.412,2.708-5.412,6.029A6.881,6.881,0,0,0,13,55.4,14.88,14.88,0,0,1,1.839,49.1,6.6,6.6,0,0,0,1.1,52.145a6.24,6.24,0,0,0,2.4,5.009,4.94,4.94,0,0,1-2.447-.742v.066A5.932,5.932,0,0,0,5.4,62.4a4.89,4.89,0,0,1-1.42.2,4.318,4.318,0,0,1-1.025-.1,5.578,5.578,0,0,0,5.061,4.2A10.2,10.2,0,0,1,1.3,69.264,9.129,9.129,0,0,1,0,69.182a14.149,14.149,0,0,0,8.309,2.7c9.966,0,15.415-9.187,15.415-17.15,0-.266-.008-.524-.02-.779A11.557,11.557,0,0,0,26.418,50.828Z" transform="translate(0 -48)" fill="#3f3c3c"/>
    </g>
  </g>
</svg>
