<svg xmlns="http://www.w3.org/2000/svg" width="23.904" height="23.107" viewBox="0 0 23.904 23.107">
  <g id="chat" transform="translate(0 -1)">
    <path id="Path_38" data-name="Path 38" d="M22.268,15.359A8.624,8.624,0,0,0,23.9,10.328C23.9,5.185,19.258,1,13.546,1a10.575,10.575,0,0,0-9.3,5.225A9.065,9.065,0,0,0,0,13.749,8.625,8.625,0,0,0,1.636,18.78C1.433,21,.895,22.649.117,23.427a.4.4,0,0,0,.282.68.37.37,0,0,0,.055,0,18.453,18.453,0,0,0,5.7-1.827,11.239,11.239,0,0,0,4.2.8,10.76,10.76,0,0,0,8.306-3.761,20.06,20.06,0,0,0,4.786,1.367.379.379,0,0,0,.056,0,.4.4,0,0,0,.282-.68C23.009,19.229,22.472,17.581,22.268,15.359ZM10.358,22.28a10.487,10.487,0,0,1-3.332-.537c1.328-.833,1.33-.9,1.329-1.124a.406.406,0,0,0-.194-.343.4.4,0,0,0-.529.108c-.2.153-1,.667-1.711,1.107h0a15.794,15.794,0,0,1-4.605,1.645A11.505,11.505,0,0,0,2.443,18.7a.4.4,0,0,0-.076-.27A7.845,7.845,0,0,1,.8,13.749,8.3,8.3,0,0,1,4.853,6.78q.232-.146.471-.28l.108-.06c.167-.09.338-.174.511-.255L6.131,6.1c.175-.078.353-.151.532-.218.063-.024.126-.045.19-.067q.213-.075.43-.141c.066-.02.131-.041.2-.06.188-.053.377-.1.568-.142.066-.015.133-.028.2-.041.172-.035.345-.066.52-.092l.12-.019c.21-.029.423-.05.636-.067l.167-.012c.221-.014.443-.023.667-.023a9.518,9.518,0,0,1,9.131,6,7.672,7.672,0,0,1,.43,2.535c0,.193-.01.384-.024.575,0,.049-.008.1-.013.148-.017.178-.038.355-.067.53,0,.014,0,.027-.006.041-.031.183-.072.364-.116.545-.013.053-.027.106-.041.159-.043.162-.092.323-.146.482-.012.033-.023.067-.035.1-.056.157-.118.313-.184.467q-.036.085-.075.169c-.074.162-.152.322-.237.48-.02.037-.042.072-.062.108q-.111.2-.233.39c-.034.053-.067.106-.1.159-.1.148-.2.294-.311.437A9.917,9.917,0,0,1,10.358,22.28Zm8.8-3.614c.017-.024.03-.049.047-.073.093-.137.182-.276.267-.417.047-.079.092-.159.137-.239s.1-.177.144-.267.084-.162.123-.244c.061-.127.118-.255.172-.385.038-.091.074-.183.109-.275.043-.114.085-.228.124-.344q.037-.112.071-.225c.038-.126.073-.253.1-.381.014-.056.03-.111.043-.167.041-.179.076-.361.106-.543.009-.056.016-.113.024-.169q.03-.213.05-.429c.005-.058.011-.115.015-.173.012-.194.022-.388.022-.585,0-5.143-4.647-9.328-10.359-9.328-.191,0-.38.006-.569.015-.068,0-.136.01-.2.014-.119.008-.237.016-.355.027-.084.008-.169.019-.253.029s-.2.024-.295.039-.187.029-.28.045l-.253.047c-.1.02-.2.041-.3.063-.071.016-.141.033-.211.051-.11.027-.22.054-.328.084l-.145.043a10.91,10.91,0,0,0-1.217.435l-.091.038c-.036.016-.073.029-.108.045a10.01,10.01,0,0,1,7.8-3.6c5.272,0,9.562,3.827,9.562,8.531a7.851,7.851,0,0,1-1.569,4.681.4.4,0,0,0-.076.27,11.5,11.5,0,0,0,1.127,4.436A18.6,18.6,0,0,1,19.161,18.666Z" transform="translate(0 0)" fill="#3f3c3c"/>
  </g>
</svg>
