<svg xmlns="http://www.w3.org/2000/svg" width="38" height="35.436" viewBox="0 0 42.431 35.436">
  <g id="left-quote" transform="translate(665 -151.858)">
    <g id="Group_95" data-name="Group 95" transform="translate(-665 144)">
      <path id="Path_28" data-name="Path 28" d="M13.581,23.917a11.243,11.243,0,0,0-3.107-.454,9.763,9.763,0,0,0-3.9.8C7.558,20.677,9.91,14.492,14.6,13.8a1.113,1.113,0,0,0,.908-.8l1.024-3.663a1.113,1.113,0,0,0-.92-1.4,7.779,7.779,0,0,0-1.048-.071c-5.625,0-11.195,5.871-13.545,14.277C-.365,27.066-.77,34.481,2.629,39.147a10.147,10.147,0,0,0,8.247,4.145h.044a9.872,9.872,0,0,0,2.661-19.376Z" transform="translate(0)" fill="#3f3c3c"/>
      <path id="Path_29" data-name="Path 29" d="M68.141,28.579a9.9,9.9,0,0,0-5.935-4.662,11.242,11.242,0,0,0-3.106-.454,9.765,9.765,0,0,0-3.9.8c.979-3.585,3.331-9.77,8.018-10.467a1.114,1.114,0,0,0,.908-.8l1.024-3.663a1.113,1.113,0,0,0-.92-1.4,7.769,7.769,0,0,0-1.048-.071c-5.625,0-11.195,5.871-13.546,14.277-1.379,4.932-1.784,12.346,1.615,17.014A10.146,10.146,0,0,0,59.5,43.293h.044a9.872,9.872,0,0,0,8.6-14.715Z" transform="translate(-26.983)" fill="#3f3c3c"/>
    </g>
  </g>
</svg>
