<svg xmlns="http://www.w3.org/2000/svg" width="21.428" height="26.095" viewBox="0 0 21.428 26.095">
  <path id="pinterest" d="M13.324,0C6.093,0,2.25,4.584,2.25,9.581c0,2.317,1.309,5.208,3.4,6.125.6.266.519-.059,1.033-2.005a.458.458,0,0,0-.112-.453C3.58,9.82,5.991,2.772,12.9,2.772c9.993,0,8.126,13.681,1.739,13.681a2.342,2.342,0,0,1-2.485-2.861c.47-1.884,1.391-3.91,1.391-5.268,0-3.423-5.154-2.915-5.154,1.62a5.439,5.439,0,0,0,.5,2.348S7.23,18.919,6.922,20.158a17.405,17.405,0,0,0,.122,5.782.174.174,0,0,0,.317.079,20.438,20.438,0,0,0,2.73-5.086c.2-.745,1.043-3.768,1.043-3.768a4.573,4.573,0,0,0,3.844,1.814c5.051,0,8.7-4.393,8.7-9.843C23.662,3.91,19.142,0,13.324,0Z" transform="translate(-2.25)" fill="#3f3c3c"/>
</svg>
