<svg xmlns="http://www.w3.org/2000/svg" width="207.867" height="75.59" viewBox="0 0 207.867 75.59">
  <g id="architectural-digest-logo" transform="translate(-20.5 -212.7)">
    <g id="Group_2" data-name="Group 2" transform="translate(90.643 212.7)">
      <path id="Path_2" data-name="Path 2" d="M223,256.172h7.1v-.312H226.81c.277-.693,4.919-13.648,4.919-13.648H245.2s4.607,12.816,4.919,13.648h-4.4v.312H257.5L241.982,212.7l-15.518,43.16H223Zm8.8-14.271,6.651-18.462L245.1,241.9Z" transform="translate(-223 -212.7)"/>
      <path id="Path_3" data-name="Path 3" d="M314.134,257.544h10.322c11.916,0,21.58-7.032,21.58-21.337,0-14.1-9.214-21.407-21.718-21.407H309.7v.312h4.4C314.134,215.112,314.134,257.544,314.134,257.544Zm6.824-.277V215.146h2.667c3.117,0,5.715.173,7.655,1.108,5.23,2.494,7.032,8.937,7.032,19.952,0,10.461-2.633,16.661-6.928,19.467-1.974,1.247-4.746,1.559-7.17,1.559C324.214,257.267,320.958,257.267,320.958,257.267Z" transform="translate(-279.668 -214.073)"/>
    </g>
    <path id="Path_4" data-name="Path 4" d="M228.367,397.391V393.13H217.595a.1.1,0,0,0-.1.1v4.191h.173c0-2.009,1.143-4.087,3.637-4.087h.173c.1,0,.1,0,.1.1v11.742c0,.069,0,.069-.1.069h-1.489v.173h5.646v-.173h-1.559c-.1,0-.1,0-.1-.069V393.442c0-.1,0-.1.1-.1h.173c2.529,0,3.741,2.009,3.741,4.087.1.035.381.035.381-.035Zm-10.946,4.261c0-2.078-1.386-2.944-3.637-3.741-2.182-.8-3.118-1.489-3.118-2.7a2.05,2.05,0,0,1,2.252-2.078,3.144,3.144,0,0,1,2.944,3.117h.173v-3.291c0-.069-.173-.069-.173,0,0,.173-.173.45-.693.45-.866,0-1.316-.45-2.252-.45a3.644,3.644,0,0,0-3.291,3.914c0,2.078,1.316,2.944,2.875,3.568,2.7.97,3.637,1.386,3.637,3.048,0,1.143-.866,2.252-2.875,2.252-2.252,0-3.81-2.7-3.81-4.087a.087.087,0,0,0-.173,0v4.261a.087.087,0,0,0,.173,0c0-.346.45-.693.97-.693.693,0,1.732.693,2.944.693a4.291,4.291,0,0,0,4.053-4.261Zm-9.145,3.81v-4.018H208.1a3.818,3.818,0,0,1-4.087,3.914h-1.732c-.1,0-.1,0-.1-.069V399.3h.45a2.269,2.269,0,0,1,2.252,2.355h.173V396.7h-.173a2.269,2.269,0,0,1-2.252,2.355h-.45v-5.646c0-.1,0-.1.069-.1h1.663a3.327,3.327,0,0,1,3.221,3.568h.173V393.2s0-.1-.069-.1h-9.145v.173h1.559c.069,0,.069,0,.069.1v11.742c0,.069,0,.069-.069.069h-1.559v.173l10.184.1Zm-9.664-4.607v-.173h-5.646v.173h1.559c.1,0,.1,0,.1.1v3.117c0,.97-.52,1.559-2.078,1.559a2.218,2.218,0,0,1-1.836-.693c-.8-.866-.866-2.355-.866-5.577,0-3.048.277-4.78,1.143-5.577a2.448,2.448,0,0,1,1.836-.693c1.732,0,3.221,2.252,3.221,3.983h.173v-4.191h-.173c0,.173-.346.45-.866.45-.624,0-1.559-.45-2.355-.45-3.221,0-5.646,3.048-5.646,6.443,0,3.291,2.078,6.443,5.4,6.443,1.905,0,2.771-.866,3.568-.866a.741.741,0,0,1,.8.623c0,.1.277.1.277,0V400.82a.068.068,0,0,1,.069-.069h1.386l-.069.1Zm-12.158,4.607v-.173H184.9c-.069,0-.069,0-.069-.1V393.442c0-.069,0-.069.069-.069h1.559V393.2h-5.646v.173h1.559c.1,0,.1,0,.1.069v11.742c0,.1,0,.1-.1.1h-1.559v.173Zm-8.625-6.166c0,3.291-.277,4.538-1.143,5.3a2.263,2.263,0,0,1-1.836.623h-1.386c-.1,0-.1,0-.1-.069V393.338c0-.069,0-.069.1-.069h1.386a2.42,2.42,0,0,1,1.836.623c.9.9,1.143,2.529,1.143,5.4Zm2.7,0c0-3.395-2.529-6.166-5.577-6.166h-5.577v.173h1.489c.1,0,.1,0,.1.1V405.15c0,.069,0,.069-.1.069h-1.489v.173h5.577c3.048.069,5.577-2.7,5.577-6.1Zm-15.9,6.166V401.3h-.173a3.858,3.858,0,0,1-3.81,3.983h-1.489c-.069,0-.069,0-.069-.1V393.442c0-.069,0-.069.069-.069h1.559V393.2h-5.646v.173h1.559c.069,0,.069,0,.069.069v11.742c0,.1,0,.1-.069.1h-1.559v.173Zm-33.911-12.089V393.2h-3.464v.173h1.559c.069,0,.069,0,.069.069v8.452c0,2.182-1.039,3.568-3.464,3.568-1.905,0-2.529-1.316-2.529-3.395v-8.625c0-.069,0-.069.069-.069h1.559V393.2h-5.646v.173h1.559c.1,0,.1,0,.1.069v8.625c0,2.6,1.836,3.741,4.434,3.741,2.875,0,4.191-1.559,4.191-3.914v-8.452c0-.069,0-.069.069-.069Zm-12.539,4.018V393.13h-10.7s-.069,0-.069.1v4.191h.173c0-2.009,1.143-4.087,3.637-4.087h.173c.1,0,.1,0,.1.1v11.742c0,.069,0,.069-.1.069H109.9v.173h5.681v-.173h-1.559c-.1,0-.1,0-.1-.069V393.442c0-.1,0-.1.1-.1h.173c2.529,0,3.741,2.009,3.741,4.087,0,.035.242.035.242-.035Zm-11.569,8.348v-4.711h-.173c0,2.252-1.732,4.538-3.81,4.538a2.322,2.322,0,0,1-1.905-.693c-.8-.866-1.143-2.6-1.143-5.577,0-2.944.346-4.78,1.143-5.577a2.306,2.306,0,0,1,1.836-.693c1.732,0,3.568,2.251,3.568,3.983h.173v-4.087h-.173c0,.173-.346.45-.866.45-.8,0-1.905-.45-2.7-.45-3.291,0-5.646,3.048-5.646,6.443,0,3.464,2.425,6.443,5.75,6.443.97,0,2.252-.52,3.048-.52a.744.744,0,0,1,.8.52C106.439,405.739,106.612,405.739,106.612,405.739Zm-10.426-.277v-4.018h-.173a3.818,3.818,0,0,1-4.087,3.914H90.193c-.1,0-.1,0-.1-.069V399.3h.45a2.269,2.269,0,0,1,2.252,2.355h.173V396.7h-.173a2.269,2.269,0,0,1-2.252,2.355h-.45v-5.646c0-.1,0-.1.1-.1h1.663a3.327,3.327,0,0,1,3.221,3.568h.173V393.2a.1.1,0,0,0-.1-.1H86v.173h1.559c.1,0,.1,0,.1.1v11.742c0,.069,0,.069-.1.069H86v.173l10.184.1Zm-11.05-8.071V393.13h-10.7s-.069,0-.069.1v4.191h.173c0-2.009,1.143-4.087,3.637-4.087h.173c.069,0,.069,0,.069.1v11.742c0,.069,0,.069-.069.069H76.857v.173H82.5v-.173H81.014c-.1,0-.1,0-.1-.069V393.442c0-.1,0-.1.1-.1h.173c2.529,0,3.741,2.009,3.741,4.087C84.963,397.46,85.136,397.46,85.136,397.391ZM73.67,405.461v-.173H72.112c-.069,0-.069,0-.069-.1V393.442c0-.069,0-.069.069-.069H73.67V393.2H68.024v.173h1.559c.1,0,.1,0,.1.069v11.742c0,.1,0,.1-.1.1H68.024v.173Zm-6.72,0v-.173H65.392c-.1,0-.1,0-.1-.1V393.442c0-.069,0-.069.1-.069h1.559V393.2H61.478v.173h1.386c.069,0,.069,0,.069.069v5.577H58.949v-5.577c0-.069,0-.069.1-.069h1.386V393.2H54.966v.173h1.489c.069,0,.069,0,.069.069v11.742c0,.1,0,.1-.069.1H54.966v.173h5.473v-.173H59.053c-.069,0-.069,0-.069-.1v-5.992h3.983v5.992c0,.1,0,.1-.1.1H61.478v.173Zm-13.3.277v-4.711h-.173c0,2.252-1.732,4.538-3.81,4.538a2.322,2.322,0,0,1-1.905-.693c-.8-.866-1.143-2.6-1.143-5.577,0-2.944.346-4.78,1.143-5.577a2.306,2.306,0,0,1,1.836-.693c1.732,0,3.568,2.251,3.568,3.983h.173v-4.087h-.173c0,.173-.346.45-.866.45-.8,0-1.905-.45-2.7-.45-3.291,0-5.646,3.048-5.646,6.443,0,3.464,2.425,6.443,5.75,6.443.97,0,2.252-.52,3.048-.52a.744.744,0,0,1,.8.52C53.476,405.739,53.649,405.739,53.649,405.739Zm-13.994-9.491c0,2.182-.346,2.7-2.009,2.7H36.607v-5.577c0-.1,0-.1.1-.1h.8C39.136,393.373,39.655,394.1,39.655,396.248Zm5.127,8.971-.1-.173a1.235,1.235,0,0,1-.97.45c-.623,0-1.039-.52-1.039-1.489v-1.559c0-1.732-1.143-3.395-3.914-3.395a3.1,3.1,0,0,0,3.395-2.875c0-1.732-1.559-3.048-4.191-3.048H32.624v.173h1.559c.069,0,.069,0,.069.1V405.15c0,.069,0,.069-.069.069H32.624v.173H38.2v-.173H36.711c-.1,0-.1,0-.1-.069v-5.992h1.039c1.559,0,2.529.623,2.529,2.078v1.143c0,2.529,1.663,3.395,3.048,3.395A2,2,0,0,0,44.782,405.219ZM27.22,401.132H23.652l1.836-5.127,1.732,5.127Zm5.646,4.33v-.173H31.411c-.069,0-.069,0-.173-.1l-4.607-12.331a.087.087,0,0,0-.173,0l-4.191,11.639c-.277.693-.277.693-.45.693H20.5v.173h3.291a.087.087,0,0,0,0-.173H22.3c-.069,0-.069-.069.173-.693l1.143-3.221h3.741l1.316,3.914s0,.1-.069.1H27.047c-.069,0-.069.173,0,.173Zm103.4-6.512h-1.039v-5.577c0-.1,0-.1.069-.1h.8c1.663,0,2.182.693,2.182,2.875C138.376,398.43,137.995,398.949,136.263,398.949Zm6.1,6.339c-.623,0-1.039-.623-1.039-1.489v-1.316c0-1.732-1.143-3.395-3.914-3.395a3.1,3.1,0,0,0,3.395-2.875c0-1.732-1.559-3.048-4.191-3.048h-5.4v.173h1.559c.1,0,.1,0,.1.069V405.15c0,.1,0,.1-.1.1h-1.559v.173h5.577v-.173h-1.455c-.069,0-.069,0-.069-.1v-5.992H136.3c1.559,0,2.529.623,2.529,2.078v1.143a2.784,2.784,0,0,0,3.048,3.117h.45v-.277l.035.069Zm6.512-4.157H145.3l1.836-5.127,1.732,5.127Zm5.646,4.33v-.173h-1.489c-.069,0-.069,0-.173-.1l-4.572-12.331a.087.087,0,0,0-.173,0l-4.191,11.639c-.277.693-.277.693-.45.693h-.97v.173h2.944c.069,0,.069-.173,0-.173h-1.489c-.1,0-.1-.069.173-.693l1.143-3.221h3.741l1.316,3.914s0,.1-.069.1H148.7a.087.087,0,0,0,0,.173Z" transform="translate(0 -117.699)"/>
  </g>
</svg>
